<svg xmlns="http://www.w3.org/2000/svg" width="22" height="22" viewBox="0 0 22 22">
  <defs>
    <style>
      .cls-1 {
        fill: #37354e;
      }

      .cls-2 {
        fill: #6839d3;
      }

      .cls-3 {
        fill: red;
        opacity: 0;
      }
    </style>
  </defs>
  <g id="ico_list_book_big" transform="translate(0)">
    <g id="그룹_3077" data-name="그룹 3077" transform="translate(0 2.928)">
      <path id="패스_2465" data-name="패스 2465" class="cls-1" d="M59.948,73.543h-.366v-1.1a1.1,1.1,0,0,0-1.1-1.1h-5.49a2.918,2.918,0,0,0-2.562,1.54,2.918,2.918,0,0,0-2.562-1.54h-5.49a1.1,1.1,0,0,0-1.1,1.1v1.1h-.366a1.466,1.466,0,0,0-1.464,1.464V85.988a1.466,1.466,0,0,0,1.464,1.464H59.948a1.466,1.466,0,0,0,1.464-1.464V75.007A1.466,1.466,0,0,0,59.948,73.543Zm-9.151.732a2.168,2.168,0,0,1,.135-.732,2.193,2.193,0,0,1,2.061-1.464h5.49a.366.366,0,0,1,.366.366V84.158a.367.367,0,0,1-.366.366h-5.49a2.2,2.2,0,0,1-2.2-2.2Zm-8.785,0v-1.83a.367.367,0,0,1,.366-.366h5.49a2.192,2.192,0,0,1,2.061,1.464,2.168,2.168,0,0,1,.135.732v8.053a2.2,2.2,0,0,1-2.2,2.2h-5.49a.367.367,0,0,1-.366-.366ZM60.68,85.988a.733.733,0,0,1-.732.732H40.914a.733.733,0,0,1-.732-.732V75.007a.733.733,0,0,1,.732-.732h.366v9.883a1.1,1.1,0,0,0,1.1,1.1h5.49a2.919,2.919,0,0,0,2.562-1.54,2.919,2.919,0,0,0,2.562,1.54h5.49a1.1,1.1,0,0,0,1.1-1.1V74.275h.366a.732.732,0,0,1,.732.732Z" transform="translate(-39.45 -71.347)"/>
      <g id="그룹_3075" data-name="그룹 3075" transform="translate(4.392 2.928)">
        <path id="패스_2466" data-name="패스 2466" class="cls-2" d="M45.816,76.079h3.66a.366.366,0,1,0,0-.732h-3.66a.366.366,0,1,0,0,.732Z" transform="translate(-45.45 -75.347)"/>
        <path id="패스_2467" data-name="패스 2467" class="cls-2" d="M49.476,78.347h-3.66a.366.366,0,1,0,0,.732h3.66a.366.366,0,1,0,0-.732Z" transform="translate(-45.45 -76.151)"/>
        <path id="패스_2468" data-name="패스 2468" class="cls-2" d="M49.476,81.347h-3.66a.366.366,0,1,0,0,.732h3.66a.366.366,0,1,0,0-.732Z" transform="translate(-45.45 -76.955)"/>
      </g>
      <g id="그룹_3076" data-name="그룹 3076" transform="translate(13.177 2.928)">
        <path id="패스_2469" data-name="패스 2469" class="cls-2" d="M57.816,76.079h3.66a.366.366,0,1,0,0-.732h-3.66a.366.366,0,1,0,0,.732Z" transform="translate(-57.45 -75.347)"/>
        <path id="패스_2470" data-name="패스 2470" class="cls-2" d="M61.476,78.347h-3.66a.366.366,0,1,0,0,.732h3.66a.366.366,0,1,0,0-.732Z" transform="translate(-57.45 -76.151)"/>
        <path id="패스_2471" data-name="패스 2471" class="cls-2" d="M61.476,81.347h-3.66a.366.366,0,1,0,0,.732h3.66a.366.366,0,1,0,0-.732Z" transform="translate(-57.45 -76.955)"/>
      </g>
    </g>
    <rect id="area" class="cls-3" width="22" height="22"/>
  </g>
</svg>
