<svg id="ico_list_etc_big" xmlns="http://www.w3.org/2000/svg" width="22" height="22" viewBox="0 0 22 22">
  <defs>
    <style>
      .cls-1 {
        fill: #6839d3;
      }

      .cls-2 {
        fill: #37354e;
      }

      .cls-3 {
        fill: #fff;
        stroke: #707070;
        opacity: 0;
      }

      .cls-4 {
        stroke: none;
      }

      .cls-5 {
        fill: none;
      }
    </style>
  </defs>
  <g id="icon" transform="translate(2.241 2.241)">
    <path id="패스_2477" data-name="패스 2477" class="cls-1" d="M19.923,51.758a.373.373,0,0,1-.264-.11l-3.185-3.184A.373.373,0,1,1,17,47.937l3.185,3.184a.374.374,0,0,1-.264.638Z" transform="translate(-7.355 -44.932)"/>
    <path id="패스_2478" data-name="패스 2478" class="cls-2" d="M10,61.132a.351.351,0,0,0,.246-.1L21.384,49.89a.348.348,0,0,0,0-.489l-4.6-4.6a.348.348,0,0,0-.489,0L5.152,55.94a.35.35,0,0,0-.1.245v4.6a.344.344,0,0,0,.343.344H10m0,.747h-4.6A1.091,1.091,0,0,1,4.3,60.788v-4.6a1.1,1.1,0,0,1,.318-.772L15.766,44.27a1.094,1.094,0,0,1,1.544,0l4.6,4.6a1.093,1.093,0,0,1,0,1.543L10.769,61.56A1.1,1.1,0,0,1,10,61.879Z" transform="translate(-4.304 -43.951)"/>
    <path id="패스_2479" data-name="패스 2479" class="cls-1" d="M24.4,66.951H17.678a.374.374,0,0,0,0,.747H24.4a.374.374,0,0,0,0-.747Z" transform="translate(-7.593 -49.77)"/>
  </g>
  <g id="사각형_2239" data-name="사각형 2239" class="cls-3">
    <rect class="cls-4" width="22" height="22"/>
    <rect class="cls-5" x="0.5" y="0.5" width="21" height="21"/>
  </g>
</svg>
