<svg xmlns="http://www.w3.org/2000/svg" xmlns:xlink="http://www.w3.org/1999/xlink" width="302" height="14" viewBox="0 0 302 14">
  <defs>
    <style>
      .cls-1 {
        fill: none;
      }

      .cls-2 {
        clip-path: url(#clip-path);
      }

      .cls-14, .cls-3 {
        fill: #fff;
      }

      .cls-4 {
        fill: #9b9aa6;
        font-size: 12px;
      }

      .cls-4, .cls-5, .cls-6 {
        font-family: NotoSansCJKkr-Regular, Noto Sans CJK KR;
      }

      .cls-4, .cls-5, .cls-6, .cls-7, .cls-9 {
        letter-spacing: -0.025em;
      }

      .cls-5 {
        fill: #737183;
      }

      .cls-5, .cls-6, .cls-7, .cls-9 {
        font-size: 13px;
      }

      .cls-6, .cls-7, .cls-9 {
        fill: #37354e;
      }

      .cls-7 {
        font-family: Roboto-Regular, Roboto;
      }

      .cls-8 {
        fill: #f5f6f8;
      }

      .cls-9 {
        font-family: NotoSansCJKkr-Medium, Noto Sans CJK KR;
        font-weight: 500;
      }

      .cls-10 {
        clip-path: url(#clip-path-2);
      }

      .cls-11 {
        fill: url(#radial-gradient);
      }

      .cls-12 {
        clip-path: url(#clip-path-3);
      }

      .cls-13 {
        fill: url(#radial-gradient-2);
      }

      .cls-14 {
        opacity: 0;
      }

      .cls-15, .cls-16 {
        stroke: none;
      }

      .cls-16 {
        fill: #e3e4e8;
      }

      .cls-17 {
        filter: url(#bg);
      }
    </style>
    <clipPath id="clip-path">
      <rect id="area" class="cls-1" width="302" height="14" transform="translate(37 582)"/>
    </clipPath>
    <filter id="bg" x="0" y="-230.999" width="302.001" height="245" filterUnits="userSpaceOnUse">
      <feOffset dy="2" input="SourceAlpha"/>
      <feGaussianBlur stdDeviation="2" result="blur"/>
      <feFlood flood-opacity="0.059"/>
      <feComposite operator="in" in2="blur"/>
      <feComposite in="SourceGraphic"/>
    </filter>
    <clipPath id="clip-path-2">
      <path id="패스_1859" data-name="패스 1859" class="cls-1" d="M300.233,459.273a8.633,8.633,0,1,0,.4-.009c-.132,0-.265,0-.4.009" transform="translate(-291.99 -459.264)"/>
    </clipPath>
    <radialGradient id="radial-gradient" cx="0.551" cy="0.328" r="0.469" gradientTransform="translate(-0.073) scale(0.988 1)" gradientUnits="objectBoundingBox">
      <stop offset="0" stop-color="#fff"/>
      <stop offset="1" stop-color="#c1833a"/>
    </radialGradient>
    <clipPath id="clip-path-3">
      <path id="패스_1860" data-name="패스 1860" class="cls-1" d="M298.449,475.12a5.5,5.5,0,0,1-3.122-1.266,6.044,6.044,0,0,1-1.778-2.868c-.286-.988-.4-2.142.067-2.053.143.026.4.665.667,1.125a2.984,2.984,0,0,0,.723.9c.1.074.424-.664.905-1.079.279-.231.586-.311.633.379.064.844-.09,1.846.156,1.846.23,0,.75-.175,1.889-.275.426-.034.67.051.264.624a4.343,4.343,0,0,1-1.123,1.155c.963.906,2.131.8,2.152,1.188.011.219-.424.342-1,.342a4.121,4.121,0,0,1-.437-.023m3.262-8.151a1.4,1.4,0,0,1-1.069-.994,2.823,2.823,0,0,1-.029-1.094,7.491,7.491,0,0,1,.673-2.146c.394-.994-.566-1.576-.408-1.942.214-.5.905.135,1.668.179.661.035,1.053,0,1.566.07a3.2,3.2,0,0,1,1.861.753c.33.385-.179.859-.788.564-.446-.218-1.009-.086-.676.381a1.475,1.475,0,0,0,.988.559,1.029,1.029,0,0,1,.387,1.915c-.859.628-1.732.37-2.08-.862-.174-.616-.607-.93-1.054-.752s-.181.981.16,1.732c.578,1.487-.6,1.643-1.05,1.643-.069,0-.122,0-.149-.006m-.637,8.43c-.009-.195.281-.246.281-.246,2.586-.513,1.831-2.207.913-3.076-.385-.361-3.984-3.469-3.984-3.469-3.436-2.96-3.163-5.269-3.163-5.269.167-2.842,2.654-3.548,4.538-3.383.218.018.342.149.3.333-.042.2-.333.216-.333.216a3.065,3.065,0,0,0-1.541.371c-1.521,1.02-1.072,2.758.95,4.689.258.243.525.5.8.762,0,0,.408.356,1.217,1.125,1.555,1.434,2.406,2.206,2.406,2.206,2.743,2.28,1.8,4.373.755,5.1a5.23,5.23,0,0,1-2.849.871.117.117,0,0,1-.027,0,.255.255,0,0,1-.268-.231m-1.046-16.439a8.734,8.734,0,1,0,.4-.01c-.134,0-.267,0-.4.01" transform="translate(-291.672 -458.95)"/>
    </clipPath>
    <radialGradient id="radial-gradient-2" cx="0.572" cy="0.361" r="1.035" gradientTransform="translate(-0.071) scale(0.988 1)" gradientUnits="objectBoundingBox">
      <stop offset="0" stop-color="#0da1d5"/>
      <stop offset="0.219" stop-color="#007ab7"/>
      <stop offset="0.256" stop-color="#0070af"/>
      <stop offset="0.353" stop-color="#005fa0"/>
      <stop offset="0.455" stop-color="#005497"/>
      <stop offset="0.573" stop-color="#005195"/>
      <stop offset="1" stop-color="#005195"/>
    </radialGradient>
  </defs>
  <g id="img_receipt_bottom_line" class="cls-2" transform="translate(-37 -582)">
    <g id="영수증" transform="translate(-23 150)">
      <g class="cls-17" transform="matrix(1, 0, 0, 1, 60, 432)">
        <g id="bg-2" data-name="bg" class="cls-3" transform="translate(6757 -1257)">
          <path class="cls-15" d="M -6461.49951171875 1262.500244140625 L -6464.537109375 1262.49951171875 C -6464.78466796875 1260.806274414062 -6466.2451171875 1259.50048828125 -6468.00048828125 1259.50048828125 C -6469.755859375 1259.50048828125 -6471.21630859375 1260.80615234375 -6471.4638671875 1262.499389648438 L -6475.5380859375 1262.499389648438 C -6475.78515625 1260.80615234375 -6477.2451171875 1259.50048828125 -6478.99951171875 1259.50048828125 C -6480.7548828125 1259.50048828125 -6482.21533203125 1260.80615234375 -6482.462890625 1262.499389648438 L -6486.537109375 1262.499389648438 C -6486.78466796875 1260.80615234375 -6488.2451171875 1259.50048828125 -6490.00048828125 1259.50048828125 C -6491.7548828125 1259.50048828125 -6493.21533203125 1260.80615234375 -6493.46240234375 1262.499389648438 L -6497.5380859375 1262.499389648438 C -6497.78515625 1260.80615234375 -6499.24560546875 1259.50048828125 -6501 1259.50048828125 C -6502.75537109375 1259.50048828125 -6504.2158203125 1260.80615234375 -6504.46337890625 1262.499389648438 L -6508.537109375 1262.499389648438 C -6508.78515625 1260.80615234375 -6510.24609375 1259.50048828125 -6512.0009765625 1259.50048828125 C -6513.75537109375 1259.50048828125 -6515.21533203125 1260.80615234375 -6515.46240234375 1262.499389648438 L -6519.736328125 1262.499389648438 C -6519.98388671875 1260.80615234375 -6521.4443359375 1259.50048828125 -6523.19970703125 1259.50048828125 C -6524.955078125 1259.50048828125 -6526.41552734375 1260.80615234375 -6526.6630859375 1262.499389648438 L -6530.7783203125 1262.499389648438 C -6531.025390625 1260.80615234375 -6532.4853515625 1259.50048828125 -6534.23974609375 1259.50048828125 C -6535.9951171875 1259.50048828125 -6537.45556640625 1260.80615234375 -6537.703125 1262.499389648438 L -6541.81787109375 1262.499389648438 C -6542.06494140625 1260.80615234375 -6543.525390625 1259.50048828125 -6545.27978515625 1259.50048828125 C -6547.03515625 1259.50048828125 -6548.49560546875 1260.80615234375 -6548.7431640625 1262.499389648438 L -6552.8564453125 1262.499389648438 C -6553.10400390625 1260.80615234375 -6554.564453125 1259.50048828125 -6556.31982421875 1259.50048828125 C -6558.0751953125 1259.50048828125 -6559.53564453125 1260.80615234375 -6559.783203125 1262.499389648438 L -6563.89794921875 1262.499389648438 C -6564.14501953125 1260.80615234375 -6565.60498046875 1259.50048828125 -6567.359375 1259.50048828125 C -6569.11474609375 1259.50048828125 -6570.5751953125 1260.80615234375 -6570.82275390625 1262.499389648438 L -6574.93798828125 1262.499389648438 C -6575.18505859375 1260.80615234375 -6576.64501953125 1259.50048828125 -6578.3994140625 1259.50048828125 C -6580.15478515625 1259.50048828125 -6581.615234375 1260.80615234375 -6581.86279296875 1262.499389648438 L -6585.9775390625 1262.499389648438 C -6586.22509765625 1260.80615234375 -6587.685546875 1259.50048828125 -6589.44091796875 1259.50048828125 C -6591.1953125 1259.50048828125 -6592.65576171875 1260.80615234375 -6592.90283203125 1262.499389648438 L -6597.017578125 1262.499389648438 C -6597.2646484375 1260.80615234375 -6598.72509765625 1259.50048828125 -6600.4794921875 1259.50048828125 C -6602.23486328125 1259.50048828125 -6603.6953125 1260.80615234375 -6603.94287109375 1262.499389648438 L -6608.0576171875 1262.499389648438 C -6608.3046875 1260.80615234375 -6609.7646484375 1259.50048828125 -6611.51904296875 1259.50048828125 C -6613.2744140625 1259.50048828125 -6614.73486328125 1260.80615234375 -6614.982421875 1262.499389648438 L -6619.09765625 1262.499389648438 C -6619.34521484375 1260.80615234375 -6620.8056640625 1259.50048828125 -6622.56103515625 1259.50048828125 C -6624.3154296875 1259.50048828125 -6625.775390625 1260.80615234375 -6626.0224609375 1262.499389648438 L -6630.13720703125 1262.499389648438 C -6630.38427734375 1260.80615234375 -6631.8447265625 1259.50048828125 -6633.59912109375 1259.50048828125 C -6635.35498046875 1259.50048828125 -6636.81640625 1260.80615234375 -6637.06396484375 1262.499389648438 L -6641.17724609375 1262.499389648438 C -6641.4248046875 1260.80615234375 -6642.88525390625 1259.50048828125 -6644.640625 1259.50048828125 C -6646.39501953125 1259.50048828125 -6647.85546875 1260.80615234375 -6648.1025390625 1262.499389648438 L -6652.21728515625 1262.499389648438 C -6652.46484375 1260.80615234375 -6653.92529296875 1259.50048828125 -6655.6806640625 1259.50048828125 C -6657.43505859375 1259.50048828125 -6658.89501953125 1260.80615234375 -6659.14208984375 1262.499389648438 L -6663.25732421875 1262.499389648438 C -6663.5048828125 1260.80615234375 -6664.96533203125 1259.50048828125 -6666.720703125 1259.50048828125 C -6668.47607421875 1259.50048828125 -6669.9365234375 1260.80615234375 -6670.18408203125 1262.499389648438 L -6674.296875 1262.499389648438 C -6674.54443359375 1260.80615234375 -6676.0048828125 1259.50048828125 -6677.76025390625 1259.50048828125 C -6679.5146484375 1259.50048828125 -6680.97509765625 1260.80615234375 -6681.22216796875 1262.499389648438 L -6685.3369140625 1262.499389648438 C -6685.58447265625 1260.80615234375 -6687.044921875 1259.50048828125 -6688.80029296875 1259.50048828125 C -6690.5556640625 1259.50048828125 -6692.01611328125 1260.80615234375 -6692.263671875 1262.499389648438 L -6696.53759765625 1262.499389648438 C -6696.78466796875 1260.80615234375 -6698.2451171875 1259.50048828125 -6699.99951171875 1259.50048828125 C -6701.7548828125 1259.50048828125 -6703.21533203125 1260.80615234375 -6703.462890625 1262.499389648438 L -6707.537109375 1262.499389648438 C -6707.78466796875 1260.80615234375 -6709.2451171875 1259.50048828125 -6711.00048828125 1259.50048828125 C -6712.755859375 1259.50048828125 -6714.21630859375 1260.80615234375 -6714.4638671875 1262.499389648438 L -6718.5380859375 1262.499389648438 C -6718.78515625 1260.80615234375 -6720.2451171875 1259.50048828125 -6721.99951171875 1259.50048828125 C -6723.7548828125 1259.50048828125 -6725.21533203125 1260.80615234375 -6725.462890625 1262.499389648438 L -6729.537109375 1262.499389648438 C -6729.78466796875 1260.80615234375 -6731.2451171875 1259.50048828125 -6733.00048828125 1259.50048828125 C -6734.7548828125 1259.50048828125 -6736.21533203125 1260.80615234375 -6736.46240234375 1262.499389648438 L -6740.5380859375 1262.499389648438 C -6740.78515625 1260.80615234375 -6742.24560546875 1259.50048828125 -6744 1259.50048828125 C -6745.75537109375 1259.50048828125 -6747.2158203125 1260.80615234375 -6747.46337890625 1262.499389648438 L -6750.50048828125 1262.499389648438 L -6750.50048828125 1034.000732421875 C -6750.50048828125 1032.07080078125 -6748.93017578125 1030.500610351562 -6747.00048828125 1030.500610351562 L -6465 1030.500610351562 C -6463.06982421875 1030.500610351562 -6461.49951171875 1032.07080078125 -6461.49951171875 1034.000732421875 L -6461.49951171875 1262.500244140625 Z"/>
          <path class="cls-16" d="M -6461.99951171875 1262.000122070312 L -6461.99951171875 1034.000732421875 C -6461.99951171875 1032.346435546875 -6463.345703125 1031.000610351562 -6465 1031.000610351562 L -6747.00048828125 1031.000610351562 C -6748.65478515625 1031.000610351562 -6750.00048828125 1032.346435546875 -6750.00048828125 1034.000732421875 L -6750.00048828125 1261.999389648438 L -6747.87158203125 1261.999389648438 C -6747.4228515625 1260.27685546875 -6745.85546875 1259.00048828125 -6744 1259.00048828125 C -6742.1455078125 1259.00048828125 -6740.578125 1260.27685546875 -6740.1298828125 1261.999389648438 L -6736.87060546875 1261.999389648438 C -6736.42236328125 1260.27685546875 -6734.85546875 1259.00048828125 -6733.00048828125 1259.00048828125 C -6731.14501953125 1259.00048828125 -6729.57763671875 1260.27685546875 -6729.12890625 1261.999389648438 L -6725.87109375 1261.999389648438 C -6725.42236328125 1260.27685546875 -6723.85498046875 1259.00048828125 -6721.99951171875 1259.00048828125 C -6720.14501953125 1259.00048828125 -6718.578125 1260.27685546875 -6718.1298828125 1261.999389648438 L -6714.8720703125 1261.999389648438 C -6714.423828125 1260.27685546875 -6712.85595703125 1259.00048828125 -6711.00048828125 1259.00048828125 C -6709.14501953125 1259.00048828125 -6707.57763671875 1260.27685546875 -6707.12890625 1261.999389648438 L -6703.87109375 1261.999389648438 C -6703.42236328125 1260.27685546875 -6701.85498046875 1259.00048828125 -6699.99951171875 1259.00048828125 C -6698.14453125 1259.00048828125 -6696.57763671875 1260.27685546875 -6696.12939453125 1261.999389648438 L -6692.671875 1261.999389648438 C -6692.2236328125 1260.27685546875 -6690.65576171875 1259.00048828125 -6688.80029296875 1259.00048828125 C -6686.94482421875 1259.00048828125 -6685.37744140625 1260.27685546875 -6684.9287109375 1261.999389648438 L -6681.63037109375 1261.999389648438 C -6681.18212890625 1260.27685546875 -6679.615234375 1259.00048828125 -6677.76025390625 1259.00048828125 C -6675.90478515625 1259.00048828125 -6674.3369140625 1260.27685546875 -6673.888671875 1261.999389648438 L -6670.59228515625 1261.999389648438 C -6670.1435546875 1260.27685546875 -6668.576171875 1259.00048828125 -6666.720703125 1259.00048828125 C -6664.865234375 1259.00048828125 -6663.29736328125 1260.27685546875 -6662.84912109375 1261.999389648438 L -6659.55029296875 1261.999389648438 C -6659.10205078125 1260.27685546875 -6657.53515625 1259.00048828125 -6655.6806640625 1259.00048828125 C -6653.8251953125 1259.00048828125 -6652.25732421875 1260.27685546875 -6651.80908203125 1261.999389648438 L -6648.5107421875 1261.999389648438 C -6648.0625 1260.27685546875 -6646.4951171875 1259.00048828125 -6644.640625 1259.00048828125 C -6642.78515625 1259.00048828125 -6641.21728515625 1260.27685546875 -6640.76904296875 1261.999389648438 L -6637.47216796875 1261.999389648438 C -6637.0234375 1260.27685546875 -6635.455078125 1259.00048828125 -6633.59912109375 1259.00048828125 C -6631.744140625 1259.00048828125 -6630.17724609375 1260.27685546875 -6629.72900390625 1261.999389648438 L -6626.4306640625 1261.999389648438 C -6625.982421875 1260.27685546875 -6624.41552734375 1259.00048828125 -6622.56103515625 1259.00048828125 C -6620.70556640625 1259.00048828125 -6619.13818359375 1260.27685546875 -6618.689453125 1261.999389648438 L -6615.390625 1261.999389648438 C -6614.94189453125 1260.27685546875 -6613.37451171875 1259.00048828125 -6611.51904296875 1259.00048828125 C -6609.66455078125 1259.00048828125 -6608.09765625 1260.27685546875 -6607.6494140625 1261.999389648438 L -6604.35107421875 1261.999389648438 C -6603.90234375 1260.27685546875 -6602.3349609375 1259.00048828125 -6600.4794921875 1259.00048828125 C -6598.625 1259.00048828125 -6597.0576171875 1260.27685546875 -6596.609375 1261.999389648438 L -6593.31103515625 1261.999389648438 C -6592.86279296875 1260.27685546875 -6591.2958984375 1259.00048828125 -6589.44091796875 1259.00048828125 C -6587.58544921875 1259.00048828125 -6586.01806640625 1260.27685546875 -6585.5693359375 1261.999389648438 L -6582.27099609375 1261.999389648438 C -6581.82275390625 1260.27685546875 -6580.2548828125 1259.00048828125 -6578.3994140625 1259.00048828125 C -6576.544921875 1259.00048828125 -6574.97802734375 1260.27685546875 -6574.52978515625 1261.999389648438 L -6571.23095703125 1261.999389648438 C -6570.78271484375 1260.27685546875 -6569.21484375 1259.00048828125 -6567.359375 1259.00048828125 C -6565.5048828125 1259.00048828125 -6563.93798828125 1260.27685546875 -6563.48974609375 1261.999389648438 L -6560.19140625 1261.999389648438 C -6559.74267578125 1260.27685546875 -6558.17529296875 1259.00048828125 -6556.31982421875 1259.00048828125 C -6554.46435546875 1259.00048828125 -6552.896484375 1260.27685546875 -6552.4482421875 1261.999389648438 L -6549.1513671875 1261.999389648438 C -6548.70263671875 1260.27685546875 -6547.13525390625 1259.00048828125 -6545.27978515625 1259.00048828125 C -6543.4248046875 1259.00048828125 -6541.85791015625 1260.27685546875 -6541.40966796875 1261.999389648438 L -6538.111328125 1261.999389648438 C -6537.66259765625 1260.27685546875 -6536.09521484375 1259.00048828125 -6534.23974609375 1259.00048828125 C -6532.38525390625 1259.00048828125 -6530.818359375 1260.27685546875 -6530.3701171875 1261.999389648438 L -6527.0712890625 1261.999389648438 C -6526.62255859375 1260.27685546875 -6525.05517578125 1259.00048828125 -6523.19970703125 1259.00048828125 C -6521.34423828125 1259.00048828125 -6519.7763671875 1260.27685546875 -6519.328125 1261.999389648438 L -6515.87060546875 1261.999389648438 C -6515.42236328125 1260.27685546875 -6513.85546875 1259.00048828125 -6512.0009765625 1259.00048828125 C -6510.14599609375 1259.00048828125 -6508.578125 1260.276977539062 -6508.12890625 1261.999389648438 L -6504.87158203125 1261.999389648438 C -6504.4228515625 1260.27685546875 -6502.85546875 1259.00048828125 -6501 1259.00048828125 C -6499.1455078125 1259.00048828125 -6497.578125 1260.27685546875 -6497.1298828125 1261.999389648438 L -6493.87060546875 1261.999389648438 C -6493.42236328125 1260.27685546875 -6491.85546875 1259.00048828125 -6490.00048828125 1259.00048828125 C -6488.14501953125 1259.00048828125 -6486.57763671875 1260.27685546875 -6486.12890625 1261.999389648438 L -6482.87109375 1261.999389648438 C -6482.42236328125 1260.27685546875 -6480.85498046875 1259.00048828125 -6478.99951171875 1259.00048828125 C -6477.14501953125 1259.00048828125 -6475.578125 1260.27685546875 -6475.1298828125 1261.999389648438 L -6471.8720703125 1261.999389648438 C -6471.423828125 1260.27685546875 -6469.85595703125 1259.00048828125 -6468.00048828125 1259.00048828125 C -6466.14501953125 1259.00048828125 -6464.5771484375 1260.277099609375 -6464.12890625 1261.999633789062 L -6461.99951171875 1262.000122070312 M -6460.99951171875 1263.000366210938 L -6461.00048828125 1263.000366210938 L -6465 1262.999389648438 C -6465.00537109375 1261.345336914062 -6466.35107421875 1260.00048828125 -6468.00048828125 1260.00048828125 C -6469.6494140625 1260.00048828125 -6470.99560546875 1261.345825195312 -6471.0009765625 1262.999389648438 L -6476.0009765625 1262.999389648438 C -6476.00634765625 1261.345336914062 -6477.35107421875 1260.00048828125 -6478.99951171875 1260.00048828125 C -6480.6484375 1260.00048828125 -6481.99462890625 1261.345825195312 -6482 1262.999389648438 L -6487 1262.999389648438 C -6487.00537109375 1261.345336914062 -6488.35107421875 1260.00048828125 -6490.00048828125 1260.00048828125 C -6491.64892578125 1260.00048828125 -6492.994140625 1261.345825195312 -6492.99951171875 1262.999389648438 L -6498.0009765625 1262.999389648438 C -6498.00634765625 1261.345336914062 -6499.35107421875 1260.00048828125 -6501 1260.00048828125 C -6502.64892578125 1260.00048828125 -6503.9951171875 1261.345825195312 -6504.00048828125 1262.999389648438 L -6509 1262.999389648438 C -6509.005859375 1261.345336914062 -6510.3515625 1260.00048828125 -6512.0009765625 1260.00048828125 C -6513.64892578125 1260.00048828125 -6514.994140625 1261.345825195312 -6514.99951171875 1262.999389648438 L -6520.19921875 1262.999389648438 C -6520.20458984375 1261.345336914062 -6521.55029296875 1260.00048828125 -6523.19970703125 1260.00048828125 C -6524.8486328125 1260.00048828125 -6526.19482421875 1261.345825195312 -6526.2001953125 1262.999389648438 L -6531.2412109375 1262.999389648438 C -6531.24658203125 1261.345336914062 -6532.59130859375 1260.00048828125 -6534.23974609375 1260.00048828125 C -6535.888671875 1260.00048828125 -6537.23486328125 1261.345825195312 -6537.240234375 1262.999389648438 L -6542.28076171875 1262.999389648438 C -6542.2861328125 1261.345336914062 -6543.630859375 1260.00048828125 -6545.27978515625 1260.00048828125 C -6546.9287109375 1260.00048828125 -6548.27490234375 1261.345825195312 -6548.2802734375 1262.999389648438 L -6553.3193359375 1262.999389648438 C -6553.32470703125 1261.345336914062 -6554.67041015625 1260.00048828125 -6556.31982421875 1260.00048828125 C -6557.96875 1260.00048828125 -6559.31494140625 1261.345825195312 -6559.3203125 1262.999389648438 L -6564.36083984375 1262.999389648438 C -6564.3662109375 1261.345336914062 -6565.7109375 1260.00048828125 -6567.359375 1260.00048828125 C -6569.00830078125 1260.00048828125 -6570.3544921875 1261.345825195312 -6570.35986328125 1262.999389648438 L -6575.40087890625 1262.999389648438 C -6575.40625 1261.345336914062 -6576.7509765625 1260.00048828125 -6578.3994140625 1260.00048828125 C -6580.04833984375 1260.00048828125 -6581.39453125 1261.345825195312 -6581.39990234375 1262.999389648438 L -6586.4404296875 1262.999389648438 C -6586.44580078125 1261.345336914062 -6587.79150390625 1260.00048828125 -6589.44091796875 1260.00048828125 C -6591.08935546875 1260.00048828125 -6592.4345703125 1261.345825195312 -6592.43994140625 1262.999389648438 L -6597.48046875 1262.999389648438 C -6597.48583984375 1261.345336914062 -6598.83056640625 1260.00048828125 -6600.4794921875 1260.00048828125 C -6602.12841796875 1260.00048828125 -6603.474609375 1261.345825195312 -6603.47998046875 1262.999389648438 L -6608.5205078125 1262.999389648438 C -6608.52587890625 1261.345336914062 -6609.87060546875 1260.00048828125 -6611.51904296875 1260.00048828125 C -6613.16796875 1260.00048828125 -6614.51416015625 1261.345825195312 -6614.51953125 1262.999389648438 L -6619.560546875 1262.999389648438 C -6619.56591796875 1261.345336914062 -6620.91162109375 1260.00048828125 -6622.56103515625 1260.00048828125 C -6624.208984375 1260.00048828125 -6625.55419921875 1261.345825195312 -6625.5595703125 1262.999389648438 L -6630.60009765625 1262.999389648438 C -6630.60546875 1261.345336914062 -6631.9501953125 1260.00048828125 -6633.59912109375 1260.00048828125 C -6635.2490234375 1260.00048828125 -6636.595703125 1261.345825195312 -6636.60107421875 1262.999389648438 L -6641.64013671875 1262.999389648438 C -6641.6455078125 1261.345336914062 -6642.9912109375 1260.00048828125 -6644.640625 1260.00048828125 C -6646.2890625 1260.00048828125 -6647.63427734375 1261.345825195312 -6647.6396484375 1262.999389648438 L -6652.68017578125 1262.999389648438 C -6652.685546875 1261.345336914062 -6654.03125 1260.00048828125 -6655.6806640625 1260.00048828125 C -6657.32861328125 1260.00048828125 -6658.673828125 1261.345825195312 -6658.67919921875 1262.999389648438 L -6663.72021484375 1262.999389648438 C -6663.7255859375 1261.345336914062 -6665.0712890625 1260.00048828125 -6666.720703125 1260.00048828125 C -6668.36962890625 1260.00048828125 -6669.7158203125 1261.345825195312 -6669.72119140625 1262.999389648438 L -6674.759765625 1262.999389648438 C -6674.76513671875 1261.345336914062 -6676.11083984375 1260.00048828125 -6677.76025390625 1260.00048828125 C -6679.40869140625 1260.00048828125 -6680.75390625 1261.345825195312 -6680.75927734375 1262.999389648438 L -6685.7998046875 1262.999389648438 C -6685.80517578125 1261.345336914062 -6687.15087890625 1260.00048828125 -6688.80029296875 1260.00048828125 C -6690.44921875 1260.00048828125 -6691.79541015625 1261.345825195312 -6691.80078125 1262.999389648438 L -6697.00048828125 1262.999389648438 C -6697.005859375 1261.345336914062 -6698.3505859375 1260.00048828125 -6699.99951171875 1260.00048828125 C -6701.6484375 1260.00048828125 -6702.99462890625 1261.345825195312 -6703 1262.999389648438 L -6708 1262.999389648438 C -6708.00537109375 1261.345336914062 -6709.35107421875 1260.00048828125 -6711.00048828125 1260.00048828125 C -6712.6494140625 1260.00048828125 -6713.99560546875 1261.345825195312 -6714.0009765625 1262.999389648438 L -6719.0009765625 1262.999389648438 C -6719.00634765625 1261.345336914062 -6720.35107421875 1260.00048828125 -6721.99951171875 1260.00048828125 C -6723.6484375 1260.00048828125 -6724.99462890625 1261.345825195312 -6725 1262.999389648438 L -6730 1262.999389648438 C -6730.00537109375 1261.345336914062 -6731.35107421875 1260.00048828125 -6733.00048828125 1260.00048828125 C -6734.64892578125 1260.00048828125 -6735.994140625 1261.345825195312 -6735.99951171875 1262.999389648438 L -6741.0009765625 1262.999389648438 C -6741.00634765625 1261.345336914062 -6742.35107421875 1260.00048828125 -6744 1260.00048828125 C -6745.64892578125 1260.00048828125 -6746.9951171875 1261.345825195312 -6747.00048828125 1262.999389648438 L -6751.00048828125 1262.999389648438 L -6751.00048828125 1034.000732421875 C -6751.00048828125 1031.795043945312 -6749.2060546875 1030.000610351562 -6747.00048828125 1030.000610351562 L -6465 1030.000610351562 C -6462.7939453125 1030.000610351562 -6460.99951171875 1031.795043945312 -6460.99951171875 1034.000732421875 L -6460.99951171875 1262.999389648438 L -6460.99951171875 1263.000366210938 Z"/>
        </g>
      </g>
      <g id="그룹_3895" data-name="그룹 3895" transform="translate(5 20)">
        <g id="list1" transform="translate(-42 -239)">
          <text id="본인_VISA_4518-42_-_-9232" data-name="본인 VISA 4518-42**-****-9232" class="cls-4" transform="translate(123 482)"><tspan x="0" y="0">본인 </tspan><tspan y="0">VISA 4518-42**-****-9232</tspan></text>
          <text id="거래결과" class="cls-5" transform="translate(123 532)"><tspan x="0" y="0">거래결과</tspan></text>
          <text id="승인_일시불_" data-name="승인(일시불)" class="cls-6" transform="translate(373 532)"><tspan x="-66.638" y="0">승인(일시불)</tspan></text>
          <text id="승인번호" class="cls-5" transform="translate(123 558)"><tspan x="0" y="0">승인번호</tspan></text>
          <text id="_45058572" data-name="45058572" class="cls-7" transform="translate(373 558)"><tspan x="-56.123" y="0">45058572</tspan></text>
          <rect id="_---" data-name="---" class="cls-8" width="250" height="1" transform="translate(123 501)"/>
          <text id="신한_카카오뱅크" data-name="신한 카카오뱅크" class="cls-9" transform="translate(147 459)"><tspan x="0" y="0">신한 카카오뱅크</tspan></text>
          <g id="ico_card_shinhan" transform="translate(123 444.185)">
            <g id="그룹_2483" data-name="그룹 2483" transform="translate(1.466 1.279)">
              <g id="그룹_2482" data-name="그룹 2482" class="cls-10">
                <rect id="사각형_2036" data-name="사각형 2036" class="cls-11" width="17.681" height="17.472" transform="translate(-0.207 0)"/>
              </g>
            </g>
            <g id="그룹_2485" data-name="그룹 2485" transform="translate(1.347 1.162)">
              <g id="그룹_2484" data-name="그룹 2484" class="cls-12">
                <rect id="사각형_2037" data-name="사각형 2037" class="cls-13" width="17.919" height="17.711" transform="translate(-0.204 0)"/>
              </g>
            </g>
            <rect id="사각형_2087" data-name="사각형 2087" class="cls-14" width="20" height="20" transform="translate(0 -0.185)"/>
          </g>
          <text id="주소" class="cls-5" transform="translate(123 584)"><tspan x="0" y="0">주소</tspan></text>
          <text id="서울시_중구_후암로_110_10층_남대문로5가_서울시티타워_" data-name="서울시 중구 후암로 110, 10층
(남대문로5가 서울시티타워)" class="cls-6" transform="translate(373 584)"><tspan x="-153.127" y="0">서울시 중구 후암로 110, 10층</tspan><tspan x="-145.925" y="19">(남대문로5가 서울시티타워)</tspan></text>
          <text id="전화번호" class="cls-5" transform="translate(123 629)"><tspan x="0" y="0">전화번호</tspan></text>
          <text id="_02-3451-5235" data-name="02-3451-5235" class="cls-7" transform="translate(373 629)"><tspan x="-76.596" y="0">02-3451-5235</tspan></text>
        </g>
      </g>
    </g>
  </g>
</svg>
